<?xml version="1.0" encoding="UTF-8"?>
<svg id="icon_citation_bubble" width="22px" height="21px" viewBox="0 0 22 21" version="1.1" xmlns="http://www.w3.org/2000/svg" xmlns:xlink="http://www.w3.org/1999/xlink">
    <!-- Generator: Sketch 50.2 (55047) - http://www.bohemiancoding.com/sketch -->
    <title>Group 2</title>
    <desc>Created with Sketch.</desc>
    <defs></defs>
    <g id="Grid" stroke="none" stroke-width="1" fill="none" fill-rule="evenodd">
        <g id="Citation---Logged-out" transform="translate(-288.000000, -781.000000)">
            <g id="Group-5" transform="translate(289.000000, 779.000000)">
                <g id="Group-2" transform="translate(0.000000, 3.000000)">
                    <g id="Group">
                        <path class="stroke" d="M18.1606957,0 L1.5292879,0 C0.68480376,0 0,0.68480376 0,1.5292879 L0,12.5724183 C0,13.4169025 0.68480376,14.1011704 1.5292879,14.1011704 L13.1575558,14.1011704 L17.5219741,18.9874971 L16.7246439,14.1011704 L18.1606957,14.1011704 C19.0051798,14.1011704 19.6899835,13.4169025 19.6899835,12.5724183 L19.6899835,1.5292879 C19.6899835,0.68480376 19.0051798,0 18.1606957,0 Z" id="Stroke-256-Copy" stroke="#0096B2" stroke-width="1.5" stroke-linecap="round" stroke-linejoin="round"></path>
                        <path class="color-me" d="M10.7987873,10.1543948 L10.8148625,10.1543948 C12.6321645,9.82569036 13.4077932,8.9353584 13.4077932,7.17791422 L13.4077932,4.89367215 C13.4077932,4.85376322 13.3732315,4.82256169 13.3266134,4.82256169 L10.7987873,4.82256169 C10.7545805,4.82256169 10.7168038,4.85376322 10.7168038,4.89367215 L10.7168038,7.17791422 C10.7168038,7.21782315 10.7545805,7.24902468 10.7987873,7.24902468 L11.9570059,7.24902468 C11.9385194,8.1161369 11.5462844,8.72565511 10.7610106,9.1109577 C10.736094,9.12547004 10.7168038,9.14796416 10.7168038,9.17626322 L10.7168038,10.0832844 C10.7168038,10.102876 10.7296639,10.1260958 10.7489542,10.1398825 C10.7610106,10.1485899 10.7803008,10.1543948 10.7987873,10.1543948" id="Fill-1-Copy" fill="#0096B2"></path>
                        <path class="color-me" d="M6.50666275,10.1543948 L6.51603995,10.1543948 C8.19455934,9.9642832 9.04319624,8.96365746 9.04319624,7.17791422 L9.04319624,4.89367215 C9.04319624,4.85376322 9.00959459,4.82256169 8.96661575,4.82256169 L6.50666275,4.82256169 C6.4636839,4.82256169 6.43008226,4.85376322 6.43008226,4.89367215 L6.43008226,7.17791422 C6.43008226,7.21782315 6.4636839,7.24902468 6.50666275,7.24902468 L7.63583431,7.24902468 C7.61473561,8.1161369 7.23261457,8.72565511 6.46993537,9.1109577 C6.44571093,9.12547004 6.43008226,9.14796416 6.43008226,9.17626322 L6.43008226,10.0832844 C6.43008226,10.102876 6.43945946,10.1231933 6.4543067,10.13698 C6.46993537,10.1485899 6.48790834,10.1543948 6.50666275,10.1543948" id="Fill-4-Copy" fill="#0096B2"></path>
                    </g>
                </g>
            </g>
        </g>
    </g>
</svg>